<?xml version="1.0" standalone="no"?>
<!DOCTYPE svg PUBLIC "-//W3C//DTD SVG 20010904//EN"
 "http://www.w3.org/TR/2001/REC-SVG-20010904/DTD/svg10.dtd">
<svg version="1.0" xmlns="http://www.w3.org/2000/svg"
 width="277.000000pt" height="277.000000pt" viewBox="0 0 277.000000 277.000000"
 preserveAspectRatio="xMidYMid meet">
<metadata>
Created by potrace 1.11, written by Peter Selinger 2001-2013
</metadata>
<g transform="translate(0.000000,277.000000) scale(0.100000,-0.100000)"
fill="#000000" stroke="none">
<path d="M1398 2635 c-2 -2 -35 -5 -73 -6 -239 -9 -482 -96 -685 -247 -230
-170 -397 -422 -469 -707 -10 -40 -14 -61 -27 -145 -12 -85 -6 -284 12 -374 2
-12 7 -34 10 -51 18 -102 108 -313 176 -413 181 -269 433 -445 753 -528 141
-36 373 -42 523 -13 260 50 463 159 652 348 239 239 362 528 364 856 1 156 -6
224 -34 330 -71 274 -222 508 -436 675 -21 17 -46 36 -54 43 -31 25 -117 75
-190 109 -133 63 -284 103 -424 114 -39 3 -76 7 -83 9 -6 2 -13 2 -15 0z"/>
</g>
</svg>
